<mxfile host="Electron" agent="Mozilla/5.0 (Windows NT 10.0; Win64; x64) AppleWebKit/537.36 (KHTML, like Gecko) draw.io/28.2.5 Chrome/138.0.7204.251 Electron/37.6.1 Safari/537.36" version="28.2.5">
  <diagram name="Database ER Diagram" id="recipe-database-erd">
    <mxGraphModel dx="1106" dy="762" grid="0" gridSize="10" guides="1" tooltips="1" connect="1" arrows="1" fold="1" page="0" pageScale="1" pageWidth="1400" pageHeight="900" background="#ffffff" math="0" shadow="0">
      <root>
        <mxCell id="0" />
        <mxCell id="1" parent="0" />
        <mxCell id="diagram_title" value="&lt;b&gt;&lt;font style=&quot;font-size: 20px;&quot;&gt;菜谱数据库 ER 图&lt;/font&gt;&lt;/b&gt;&lt;br&gt;&lt;font style=&quot;font-size: 12px;&quot;&gt;DavidRecipeToday - 实体关系模型&lt;/font&gt;" style="text;html=1;strokeColor=none;fillColor=none;align=center;verticalAlign=middle;whiteSpace=wrap;rounded=0;fontColor=#333333;" parent="1" vertex="1">
          <mxGeometry x="520" y="20" width="360" height="50" as="geometry" />
        </mxCell>
        <mxCell id="recipes_entity" value="&lt;b&gt;recipes&lt;/b&gt;" style="whiteSpace=wrap;html=1;align=center;fontSize=14;fillColor=#d5e8d4;strokeColor=#82b366;strokeWidth=2;fontColor=#333333;" parent="1" vertex="1">
          <mxGeometry x="280" y="240" width="120" height="60" as="geometry" />
        </mxCell>
        <mxCell id="recipes_id" value="&lt;u&gt;id&lt;/u&gt;" style="ellipse;whiteSpace=wrap;html=1;align=center;fontSize=12;fillColor=#d5e8d4;strokeColor=#82b366;fontColor=#333333;" parent="1" vertex="1">
          <mxGeometry x="130" y="150" width="80" height="40" as="geometry" />
        </mxCell>
        <mxCell id="recipes_title" value="title" style="ellipse;whiteSpace=wrap;html=1;align=center;fontSize=12;fillColor=#d5e8d4;strokeColor=#82b366;fontColor=#333333;" parent="1" vertex="1">
          <mxGeometry x="230" y="130" width="80" height="40" as="geometry" />
        </mxCell>
        <mxCell id="recipes_description" value="description" style="ellipse;whiteSpace=wrap;html=1;align=center;fontSize=12;fillColor=#d5e8d4;strokeColor=#82b366;fontColor=#333333;" parent="1" vertex="1">
          <mxGeometry x="330" y="120" width="90" height="40" as="geometry" />
        </mxCell>
        <mxCell id="recipes_instructions" value="instructions" style="ellipse;whiteSpace=wrap;html=1;align=center;fontSize=12;fillColor=#d5e8d4;strokeColor=#82b366;fontColor=#333333;" parent="1" vertex="1">
          <mxGeometry x="430" y="130" width="90" height="40" as="geometry" />
        </mxCell>
        <mxCell id="recipes_prep_time" value="prep_time_minutes" style="ellipse;whiteSpace=wrap;html=1;align=center;fontSize=11;fillColor=#d5e8d4;strokeColor=#82b366;fontColor=#333333;" parent="1" vertex="1">
          <mxGeometry x="120" y="210" width="110" height="40" as="geometry" />
        </mxCell>
        <mxCell id="recipes_cook_time" value="cook_time_minutes" style="ellipse;whiteSpace=wrap;html=1;align=center;fontSize=11;fillColor=#d5e8d4;strokeColor=#82b366;fontColor=#333333;" parent="1" vertex="1">
          <mxGeometry x="430" y="200" width="110" height="40" as="geometry" />
        </mxCell>
        <mxCell id="recipes_servings" value="servings" style="ellipse;whiteSpace=wrap;html=1;align=center;fontSize=12;fillColor=#d5e8d4;strokeColor=#82b366;fontColor=#333333;" parent="1" vertex="1">
          <mxGeometry x="120" y="270" width="80" height="40" as="geometry" />
        </mxCell>
        <mxCell id="recipes_image_url" value="image_url" style="ellipse;whiteSpace=wrap;html=1;align=center;fontSize=12;dashed=1;fillColor=#d5e8d4;strokeColor=#82b366;fontColor=#333333;" parent="1" vertex="1">
          <mxGeometry x="440" y="290" width="90" height="40" as="geometry" />
        </mxCell>
        <mxCell id="recipes_created_at" value="created_at" style="ellipse;whiteSpace=wrap;html=1;align=center;fontSize=12;fillColor=#d5e8d4;strokeColor=#82b366;fontColor=#333333;" parent="1" vertex="1">
          <mxGeometry x="130" y="330" width="80" height="40" as="geometry" />
        </mxCell>
        <mxCell id="edge_recipes_id" style="fontColor=#333333;strokeColor=#333333;" parent="1" source="recipes_id" target="recipes_entity" edge="1">
          <mxGeometry relative="1" as="geometry" />
        </mxCell>
        <mxCell id="edge_recipes_title" style="fontColor=#333333;strokeColor=#333333;" parent="1" source="recipes_title" target="recipes_entity" edge="1">
          <mxGeometry relative="1" as="geometry" />
        </mxCell>
        <mxCell id="edge_recipes_description" style="fontColor=#333333;strokeColor=#333333;" parent="1" source="recipes_description" target="recipes_entity" edge="1">
          <mxGeometry relative="1" as="geometry" />
        </mxCell>
        <mxCell id="edge_recipes_instructions" style="fontColor=#333333;strokeColor=#333333;" parent="1" source="recipes_instructions" target="recipes_entity" edge="1">
          <mxGeometry relative="1" as="geometry" />
        </mxCell>
        <mxCell id="edge_recipes_prep_time" style="fontColor=#333333;strokeColor=#333333;" parent="1" source="recipes_prep_time" target="recipes_entity" edge="1">
          <mxGeometry relative="1" as="geometry" />
        </mxCell>
        <mxCell id="edge_recipes_cook_time" style="fontColor=#333333;strokeColor=#333333;" parent="1" source="recipes_cook_time" target="recipes_entity" edge="1">
          <mxGeometry relative="1" as="geometry" />
        </mxCell>
        <mxCell id="edge_recipes_servings" style="fontColor=#333333;strokeColor=#333333;" parent="1" source="recipes_servings" target="recipes_entity" edge="1">
          <mxGeometry relative="1" as="geometry" />
        </mxCell>
        <mxCell id="edge_recipes_image_url" style="fontColor=#333333;strokeColor=#333333;" parent="1" source="recipes_image_url" target="recipes_entity" edge="1">
          <mxGeometry relative="1" as="geometry" />
        </mxCell>
        <mxCell id="edge_recipes_created_at" style="fontColor=#333333;strokeColor=#333333;" parent="1" source="recipes_created_at" target="recipes_entity" edge="1">
          <mxGeometry relative="1" as="geometry" />
        </mxCell>
        <mxCell id="ingredients_entity" value="&lt;b&gt;ingredients&lt;/b&gt;" style="whiteSpace=wrap;html=1;align=center;fontSize=14;fillColor=#dae8fc;strokeColor=#6c8ebf;strokeWidth=2;fontColor=#333333;" parent="1" vertex="1">
          <mxGeometry x="280" y="600" width="120" height="60" as="geometry" />
        </mxCell>
        <mxCell id="ingredients_id" value="&lt;u&gt;id&lt;/u&gt;" style="ellipse;whiteSpace=wrap;html=1;align=center;fontSize=12;fillColor=#dae8fc;strokeColor=#6c8ebf;fontColor=#333333;" parent="1" vertex="1">
          <mxGeometry x="150" y="700" width="80" height="40" as="geometry" />
        </mxCell>
        <mxCell id="ingredients_name" value="name" style="ellipse;whiteSpace=wrap;html=1;align=center;fontSize=12;fillColor=#dae8fc;strokeColor=#6c8ebf;fontColor=#333333;" parent="1" vertex="1">
          <mxGeometry x="280" y="710" width="80" height="40" as="geometry" />
        </mxCell>
        <mxCell id="ingredients_category" value="category" style="ellipse;whiteSpace=wrap;html=1;align=center;fontSize=12;dashed=1;fillColor=#dae8fc;strokeColor=#6c8ebf;fontColor=#333333;" parent="1" vertex="1">
          <mxGeometry x="400" y="700" width="90" height="40" as="geometry" />
        </mxCell>
        <mxCell id="ingredients_created_at" value="created_at" style="ellipse;whiteSpace=wrap;html=1;align=center;fontSize=12;fillColor=#dae8fc;strokeColor=#6c8ebf;fontColor=#333333;" parent="1" vertex="1">
          <mxGeometry x="500" y="630" width="80" height="40" as="geometry" />
        </mxCell>
        <mxCell id="edge_ingredients_id" style="fontColor=#333333;strokeColor=#333333;" parent="1" source="ingredients_id" target="ingredients_entity" edge="1">
          <mxGeometry relative="1" as="geometry" />
        </mxCell>
        <mxCell id="edge_ingredients_name" style="fontColor=#333333;strokeColor=#333333;" parent="1" source="ingredients_name" target="ingredients_entity" edge="1">
          <mxGeometry relative="1" as="geometry" />
        </mxCell>
        <mxCell id="edge_ingredients_category" style="fontColor=#333333;strokeColor=#333333;" parent="1" source="ingredients_category" target="ingredients_entity" edge="1">
          <mxGeometry relative="1" as="geometry" />
        </mxCell>
        <mxCell id="edge_ingredients_created_at" style="fontColor=#333333;strokeColor=#333333;" parent="1" source="ingredients_created_at" target="ingredients_entity" edge="1">
          <mxGeometry relative="1" as="geometry" />
        </mxCell>
        <mxCell id="recipe_ingredients_rel" value="&lt;b&gt;包含&lt;/b&gt;" style="shape=rhombus;perimeter=rhombusPerimeter;whiteSpace=wrap;html=1;align=center;fontSize=13;fillColor=#fff2cc;strokeColor=#d6b656;strokeWidth=2;fontColor=#333333;" parent="1" vertex="1">
          <mxGeometry x="280" y="410" width="120" height="80" as="geometry" />
        </mxCell>
        <mxCell id="recipe_ingredients_quantity" value="quantity" style="ellipse;whiteSpace=wrap;html=1;align=center;fontSize=12;fillColor=#fff2cc;strokeColor=#d6b656;fontColor=#333333;" parent="1" vertex="1">
          <mxGeometry x="430" y="390" width="80" height="40" as="geometry" />
        </mxCell>
        <mxCell id="recipe_ingredients_optional" value="is_optional" style="ellipse;whiteSpace=wrap;html=1;align=center;fontSize=12;fillColor=#fff2cc;strokeColor=#d6b656;fontColor=#333333;" parent="1" vertex="1">
          <mxGeometry x="440" y="450" width="90" height="40" as="geometry" />
        </mxCell>
        <mxCell id="edge_ri_quantity" style="fontColor=#333333;strokeColor=#333333;" parent="1" source="recipe_ingredients_quantity" target="recipe_ingredients_rel" edge="1">
          <mxGeometry relative="1" as="geometry" />
        </mxCell>
        <mxCell id="edge_ri_optional" style="fontColor=#333333;strokeColor=#333333;" parent="1" source="recipe_ingredients_optional" target="recipe_ingredients_rel" edge="1">
          <mxGeometry relative="1" as="geometry" />
        </mxCell>
        <mxCell id="edge_recipes_to_ri" style="strokeWidth=2;fontColor=#333333;strokeColor=#333333;" parent="1" source="recipes_entity" target="recipe_ingredients_rel" edge="1">
          <mxGeometry relative="1" as="geometry" />
        </mxCell>
        <mxCell id="label_recipes_card_top" value="&lt;b&gt;1&lt;/b&gt;" style="text;html=1;align=center;verticalAlign=middle;resizable=0;points=[];autosize=1;fontSize=14;fontColor=#333333;" parent="1" vertex="1">
          <mxGeometry x="340" y="305" width="30" height="30" as="geometry" />
        </mxCell>
        <mxCell id="label_recipes_card_mid" value="&lt;b&gt;m&lt;/b&gt;" style="text;html=1;align=center;verticalAlign=middle;resizable=0;points=[];autosize=1;fontSize=14;fontColor=#333333;" parent="1" vertex="1">
          <mxGeometry x="340" y="375" width="30" height="30" as="geometry" />
        </mxCell>
        <mxCell id="edge_ri_to_ingredients" style="strokeWidth=2;fontColor=#333333;strokeColor=#333333;" parent="1" source="recipe_ingredients_rel" target="ingredients_entity" edge="1">
          <mxGeometry relative="1" as="geometry" />
        </mxCell>
        <mxCell id="label_ingredients_card_mid" value="&lt;b&gt;n&lt;/b&gt;" style="text;html=1;align=center;verticalAlign=middle;resizable=0;points=[];autosize=1;fontSize=14;fontColor=#333333;" parent="1" vertex="1">
          <mxGeometry x="340" y="495" width="30" height="30" as="geometry" />
        </mxCell>
        <mxCell id="label_ingredients_card_bottom" value="&lt;b&gt;1&lt;/b&gt;" style="text;html=1;align=center;verticalAlign=middle;resizable=0;points=[];autosize=1;fontSize=14;fontColor=#333333;" parent="1" vertex="1">
          <mxGeometry x="340" y="565" width="30" height="30" as="geometry" />
        </mxCell>
        <mxCell id="tags_entity" value="&lt;b&gt;tags&lt;/b&gt;" style="whiteSpace=wrap;html=1;align=center;fontSize=14;fillColor=#f8cecc;strokeColor=#b85450;strokeWidth=2;fontColor=#333333;" parent="1" vertex="1">
          <mxGeometry x="760" y="240" width="120" height="60" as="geometry" />
        </mxCell>
        <mxCell id="tags_id" value="&lt;u&gt;id&lt;/u&gt;" style="ellipse;whiteSpace=wrap;html=1;align=center;fontSize=12;fillColor=#f8cecc;strokeColor=#b85450;fontColor=#333333;" parent="1" vertex="1">
          <mxGeometry x="700" y="150" width="80" height="40" as="geometry" />
        </mxCell>
        <mxCell id="tags_name" value="name" style="ellipse;whiteSpace=wrap;html=1;align=center;fontSize=12;fillColor=#f8cecc;strokeColor=#b85450;fontColor=#333333;" parent="1" vertex="1">
          <mxGeometry x="840" y="160" width="80" height="40" as="geometry" />
        </mxCell>
        <mxCell id="edge_tags_id" style="fontColor=#333333;strokeColor=#333333;" parent="1" source="tags_id" target="tags_entity" edge="1">
          <mxGeometry relative="1" as="geometry" />
        </mxCell>
        <mxCell id="edge_tags_name" style="fontColor=#333333;strokeColor=#333333;" parent="1" source="tags_name" target="tags_entity" edge="1">
          <mxGeometry relative="1" as="geometry" />
        </mxCell>
        <mxCell id="recipe_tags_rel" value="&lt;b&gt;标记为&lt;/b&gt;" style="shape=rhombus;perimeter=rhombusPerimeter;whiteSpace=wrap;html=1;align=center;fontSize=13;fillColor=#e1d5e7;strokeColor=#9673a6;strokeWidth=2;fontColor=#333333;" parent="1" vertex="1">
          <mxGeometry x="530" y="230" width="120" height="80" as="geometry" />
        </mxCell>
        <mxCell id="edge_recipes_to_tags" style="strokeWidth=2;fontColor=#333333;strokeColor=#333333;" parent="1" source="recipes_entity" target="recipe_tags_rel" edge="1">
          <mxGeometry relative="1" as="geometry" />
        </mxCell>
        <mxCell id="label_recipes_tags_left" value="&lt;b&gt;1&lt;/b&gt;" style="text;html=1;align=center;verticalAlign=middle;resizable=0;points=[];autosize=1;fontSize=14;fontColor=#333333;" parent="1" vertex="1">
          <mxGeometry x="405" y="245" width="30" height="30" as="geometry" />
        </mxCell>
        <mxCell id="label_recipes_tags_mid" value="&lt;b&gt;m&lt;/b&gt;" style="text;html=1;align=center;verticalAlign=middle;resizable=0;points=[];autosize=1;fontSize=14;fontColor=#333333;" parent="1" vertex="1">
          <mxGeometry x="495" y="245" width="30" height="30" as="geometry" />
        </mxCell>
        <mxCell id="edge_tags_rel_to_tags" style="strokeWidth=2;fontColor=#333333;strokeColor=#333333;" parent="1" source="recipe_tags_rel" target="tags_entity" edge="1">
          <mxGeometry relative="1" as="geometry" />
        </mxCell>
        <mxCell id="label_tags_mid" value="&lt;b&gt;n&lt;/b&gt;" style="text;html=1;align=center;verticalAlign=middle;resizable=0;points=[];autosize=1;fontSize=14;fontColor=#333333;" parent="1" vertex="1">
          <mxGeometry x="655" y="245" width="30" height="30" as="geometry" />
        </mxCell>
        <mxCell id="label_tags_right" value="&lt;b&gt;1&lt;/b&gt;" style="text;html=1;align=center;verticalAlign=middle;resizable=0;points=[];autosize=1;fontSize=14;fontColor=#333333;" parent="1" vertex="1">
          <mxGeometry x="725" y="245" width="30" height="30" as="geometry" />
        </mxCell>
        <mxCell id="legend_box" value="" style="rounded=1;whiteSpace=wrap;html=1;fillColor=#f5f5f5;strokeColor=#666666;fontColor=#333333;dashed=1;align=left;verticalAlign=top;" parent="1" vertex="1">
          <mxGeometry x="760" y="400" width="280" height="220" as="geometry" />
        </mxCell>
        <mxCell id="legend_title" value="&lt;b&gt;图例说明&lt;/b&gt;" style="text;html=1;align=center;verticalAlign=middle;resizable=0;points=[];autosize=1;fontSize=14;fontStyle=1;fontColor=#333333;" parent="1" vertex="1">
          <mxGeometry x="840" y="405" width="90" height="30" as="geometry" />
        </mxCell>
        <mxCell id="legend_1" value="• 矩形 = 实体集（Entity Set）" style="text;html=1;align=left;verticalAlign=middle;resizable=0;points=[];autosize=1;fontSize=12;fontColor=#333333;" parent="1" vertex="1">
          <mxGeometry x="770" y="440" width="220" height="30" as="geometry" />
        </mxCell>
        <mxCell id="legend_2" value="• 菱形 = 联系集（Relationship）" style="text;html=1;align=left;verticalAlign=middle;resizable=0;points=[];autosize=1;fontSize=12;fontColor=#333333;" parent="1" vertex="1">
          <mxGeometry x="770" y="470" width="230" height="30" as="geometry" />
        </mxCell>
        <mxCell id="legend_3" value="• 椭圆 = 属性（Attribute）" style="text;html=1;align=left;verticalAlign=middle;resizable=0;points=[];autosize=1;fontSize=12;fontColor=#333333;" parent="1" vertex="1">
          <mxGeometry x="770" y="500" width="210" height="30" as="geometry" />
        </mxCell>
        <mxCell id="legend_4" value="• 下划线 = 主键（Primary Key）" style="text;html=1;align=left;verticalAlign=middle;resizable=0;points=[];autosize=1;fontSize=12;fontColor=#333333;" parent="1" vertex="1">
          <mxGeometry x="770" y="530" width="240" height="30" as="geometry" />
        </mxCell>
        <mxCell id="legend_5" value="• 虚线椭圆 = 可选属性（Nullable）" style="text;html=1;align=left;verticalAlign=middle;resizable=0;points=[];autosize=1;fontSize=12;fontColor=#333333;" parent="1" vertex="1">
          <mxGeometry x="770" y="560" width="250" height="30" as="geometry" />
        </mxCell>
        <mxCell id="legend_6" value="• 1:m:n = 基数约束（Cardinality）" style="text;html=1;align=left;verticalAlign=middle;resizable=0;points=[];autosize=1;fontSize=12;fontColor=#333333;" parent="1" vertex="1">
          <mxGeometry x="770" y="590" width="250" height="30" as="geometry" />
        </mxCell>
        <mxCell id="notes_box" value="" style="rounded=1;whiteSpace=wrap;html=1;fillColor=#ffe6cc;strokeColor=#d79b00;align=left;verticalAlign=top;fontColor=#333333;" parent="1" vertex="1">
          <mxGeometry x="760" y="650" width="280" height="100" as="geometry" />
        </mxCell>
        <mxCell id="notes_title" value="&lt;b&gt;说明&lt;/b&gt;" style="text;html=1;align=center;verticalAlign=middle;resizable=0;points=[];autosize=1;fontSize=14;fontStyle=1;fontColor=#333333;" parent="1" vertex="1">
          <mxGeometry x="865" y="655" width="60" height="30" as="geometry" />
        </mxCell>
        <mxCell id="notes_1" value="• recipes 与 ingredients 为多对多关系（m:n）" style="text;html=1;align=left;verticalAlign=middle;resizable=0;points=[];autosize=1;fontSize=11;fontColor=#333333;" parent="1" vertex="1">
          <mxGeometry x="770" y="685" width="270" height="20" as="geometry" />
        </mxCell>
        <mxCell id="notes_2" value="• recipes 与 tags 为多对多关系（m:n）" style="text;html=1;align=left;verticalAlign=middle;resizable=0;points=[];autosize=1;fontSize=11;fontColor=#333333;" parent="1" vertex="1">
          <mxGeometry x="770" y="710" width="260" height="20" as="geometry" />
        </mxCell>
        <mxCell id="notes_3" value="• 关系集上的属性表示关系的特有信息" style="text;html=1;align=left;verticalAlign=middle;resizable=0;points=[];autosize=1;fontSize=11;fontColor=#333333;" parent="1" vertex="1">
          <mxGeometry x="770" y="730" width="260" height="20" as="geometry" />
        </mxCell>
      </root>
    </mxGraphModel>
  </diagram>
</mxfile>
